<?xml version="1.0" encoding="UTF-8" standalone="no"?>
<!DOCTYPE svg PUBLIC "-//W3C//DTD SVG 1.1//EN"
 "http://www.w3.org/Graphics/SVG/1.1/DTD/svg11.dtd">
<!-- Generated by graphviz version 2.43.0 (0)
 -->
<!-- Title: %3 Pages: 1 -->
<svg width="282pt" height="296pt"
 viewBox="0.00 0.00 282.50 295.90" xmlns="http://www.w3.org/2000/svg" xmlns:xlink="http://www.w3.org/1999/xlink">
<g id="graph0" class="graph" transform="scale(1 1) rotate(0) translate(4 291.9)">
<title>%3</title>
<polygon fill="white" stroke="transparent" points="-4,4 -4,-291.9 278.5,-291.9 278.5,4 -4,4"/>
<!-- 1 -->
<g id="node1" class="node">
<title>1</title>
<ellipse fill="blue" stroke="blue" cx="151" cy="-143.95" rx="7" ry="7"/>
</g>
<!-- 2 -->
<g id="node2" class="node">
<title>2</title>
<ellipse fill="blue" stroke="blue" cx="267.5" cy="-228.59" rx="7" ry="7"/>
</g>
<!-- 1&#45;&#45;2 -->
<g id="edge1" class="edge">
<title>1&#45;&#45;2</title>
<path fill="none" stroke="yellow" stroke-width="8" d="M156.94,-148.27C176.97,-162.82 241.91,-210 261.71,-224.39"/>
</g>
<!-- 3 -->
<g id="node3" class="node">
<title>3</title>
<ellipse fill="blue" stroke="blue" cx="106.5" cy="-280.9" rx="7" ry="7"/>
</g>
<!-- 1&#45;&#45;3 -->
<g id="edge2" class="edge">
<title>1&#45;&#45;3</title>
<path fill="none" stroke="green" stroke-width="8" d="M148.73,-150.93C141.08,-174.48 116.28,-250.82 108.71,-274.1"/>
</g>
<!-- 4 -->
<g id="node4" class="node">
<title>4</title>
<ellipse fill="blue" stroke="blue" cx="7" cy="-143.95" rx="7" ry="7"/>
</g>
<!-- 1&#45;&#45;4 -->
<g id="edge3" class="edge">
<title>1&#45;&#45;4</title>
<path fill="none" stroke="cyan" stroke-width="4" d="M143.66,-143.95C118.9,-143.95 38.63,-143.95 14.15,-143.95"/>
</g>
<!-- 5 -->
<g id="node5" class="node">
<title>5</title>
<ellipse fill="blue" stroke="blue" cx="106.5" cy="-7" rx="7" ry="7"/>
</g>
<!-- 1&#45;&#45;5 -->
<g id="edge4" class="edge">
<title>1&#45;&#45;5</title>
<path fill="none" stroke="blue" stroke-width="4" d="M148.73,-136.97C141.08,-113.42 116.28,-37.08 108.71,-13.8"/>
</g>
<!-- 6 -->
<g id="node6" class="node">
<title>6</title>
<ellipse fill="blue" stroke="blue" cx="267.5" cy="-59.31" rx="7" ry="7"/>
</g>
<!-- 1&#45;&#45;6 -->
<g id="edge5" class="edge">
<title>1&#45;&#45;6</title>
<path fill="none" stroke="red" stroke-width="4" d="M156.94,-139.64C176.97,-125.09 241.91,-77.9 261.71,-63.52"/>
</g>
<!-- 2&#45;&#45;3 -->
<g id="edge6" class="edge">
<title>2&#45;&#45;3</title>
<path fill="none" stroke="blue" stroke-width="4" d="M260.58,-230.84C234.1,-239.45 139.34,-270.23 113.21,-278.72"/>
</g>
<!-- 2&#45;&#45;4 -->
<g id="edge7" class="edge">
<title>2&#45;&#45;4</title>
<path fill="none" stroke="red" stroke-width="4" d="M260.8,-226.42C224.48,-214.62 51.54,-158.42 14.14,-146.27"/>
</g>
<!-- 2&#45;&#45;5 -->
<g id="edge8" class="edge">
<title>2&#45;&#45;5</title>
<path fill="none" stroke="cyan" stroke-width="4" d="M263.19,-222.67C240.39,-191.28 133.92,-44.73 110.9,-13.05"/>
</g>
<!-- 2&#45;&#45;6 -->
<g id="edge9" class="edge">
<title>2&#45;&#45;6</title>
<path fill="none" stroke="green" stroke-width="8" d="M267.5,-221.32C267.5,-193.47 267.5,-93.84 267.5,-66.37"/>
</g>
<!-- 3&#45;&#45;4 -->
<g id="edge10" class="edge">
<title>3&#45;&#45;4</title>
<path fill="none" stroke="yellow" stroke-width="8" d="M102.23,-275.02C85.86,-252.49 27.3,-171.89 11.15,-149.66"/>
</g>
<!-- 3&#45;&#45;5 -->
<g id="edge11" class="edge">
<title>3&#45;&#45;5</title>
<path fill="none" stroke="red" stroke-width="4" d="M106.5,-273.86C106.5,-235.68 106.5,-53.83 106.5,-14.51"/>
</g>
<!-- 3&#45;&#45;6 -->
<g id="edge12" class="edge">
<title>3&#45;&#45;6</title>
<path fill="none" stroke="cyan" stroke-width="4" d="M110.81,-274.98C133.61,-243.59 240.08,-97.04 263.1,-65.36"/>
</g>
<!-- 4&#45;&#45;5 -->
<g id="edge13" class="edge">
<title>4&#45;&#45;5</title>
<path fill="none" stroke="green" stroke-width="8" d="M11.28,-138.07C27.64,-115.54 86.21,-34.94 102.35,-12.71"/>
</g>
<!-- 4&#45;&#45;6 -->
<g id="edge14" class="edge">
<title>4&#45;&#45;6</title>
<path fill="none" stroke="blue" stroke-width="4" d="M13.7,-141.77C50.02,-129.98 222.96,-73.78 260.36,-61.63"/>
</g>
<!-- 5&#45;&#45;6 -->
<g id="edge15" class="edge">
<title>5&#45;&#45;6</title>
<path fill="none" stroke="yellow" stroke-width="8" d="M113.42,-9.25C139.9,-17.85 234.66,-48.64 260.79,-57.13"/>
</g>
</g>
</svg>
