<?xml version="1.0" encoding="UTF-8" standalone="no"?>
<!DOCTYPE svg PUBLIC "-//W3C//DTD SVG 1.1//EN"
 "http://www.w3.org/Graphics/SVG/1.1/DTD/svg11.dtd">
<!-- Generated by graphviz version 2.43.0 (0)
 -->
<!-- Title: %3 Pages: 1 -->
<svg width="238pt" height="271pt"
 viewBox="0.00 0.00 238.00 271.42" xmlns="http://www.w3.org/2000/svg" xmlns:xlink="http://www.w3.org/1999/xlink">
<g id="graph0" class="graph" transform="scale(1 1) rotate(0) translate(4 267.42)">
<title>%3</title>
<polygon fill="white" stroke="transparent" points="-4,4 -4,-267.42 234,-267.42 234,4 -4,4"/>
<!-- 1 -->
<g id="node1" class="node">
<title>1</title>
<ellipse fill="blue" stroke="blue" cx="151" cy="-131.71" rx="7" ry="7"/>
</g>
<!-- 2 -->
<g id="node2" class="node">
<title>2</title>
<ellipse fill="blue" stroke="blue" cx="223" cy="-256.42" rx="7" ry="7"/>
</g>
<!-- 1&#45;&#45;2 -->
<g id="edge1" class="edge">
<title>1&#45;&#45;2</title>
<path fill="none" stroke="blue" stroke-width="4" d="M154.67,-138.06C167.05,-159.51 207.18,-229.02 219.42,-250.22"/>
</g>
<!-- 3 -->
<g id="node3" class="node">
<title>3</title>
<ellipse fill="blue" stroke="blue" cx="7" cy="-131.71" rx="7" ry="7"/>
</g>
<!-- 1&#45;&#45;3 -->
<g id="edge2" class="edge">
<title>1&#45;&#45;3</title>
<path fill="none" stroke="green" stroke-width="4" d="M143.66,-131.71C118.9,-131.71 38.63,-131.71 14.15,-131.71"/>
</g>
<!-- 4 -->
<g id="node4" class="node">
<title>4</title>
<ellipse fill="blue" stroke="blue" cx="223" cy="-7" rx="7" ry="7"/>
</g>
<!-- 1&#45;&#45;4 -->
<g id="edge3" class="edge">
<title>1&#45;&#45;4</title>
<path fill="none" stroke="red" stroke-width="4" d="M154.67,-125.35C167.05,-103.91 207.18,-34.39 219.42,-13.19"/>
</g>
<!-- 2&#45;&#45;3 -->
<g id="edge4" class="edge">
<title>2&#45;&#45;3</title>
<path fill="none" stroke="red" stroke-width="4" d="M216.77,-252.82C185.36,-234.69 44.72,-153.48 13.26,-135.32"/>
</g>
<!-- 2&#45;&#45;4 -->
<g id="edge5" class="edge">
<title>2&#45;&#45;4</title>
<path fill="none" stroke="green" stroke-width="4" d="M223,-249.22C223,-212.96 223,-50.55 223,-14.22"/>
</g>
<!-- 3&#45;&#45;4 -->
<g id="edge6" class="edge">
<title>3&#45;&#45;4</title>
<path fill="none" stroke="blue" stroke-width="4" d="M13.23,-128.11C44.64,-109.98 185.28,-28.78 216.74,-10.61"/>
</g>
</g>
</svg>
